# xmcd CD database file
#
# Track frame offsets:
#	150
#	12113
#	26214
#	39467
#	52406
#	66739
#	79759
#	93817
#	106579
#	117698
#	131818
#	144563
#	156770
#	168494
#	181349
#	193816
#	207086
#	217830
#	228926
#	242078
#	252749
#	266227
#	280500
#	294572
#	306043
#	317304
#
# Disc length: 4411 seconds
#
# Revision: 2
# Processed by: cddbd v1.5.2PL0 Copyright (c) Steve Scherf et al.
# Submitted via: CDex 1.70beta2
#
DISCID=8111391a
DTITLE=Sleepy John Estes - The Ultimate Jazz Archive Set 13
DYEAR=1900
DGENRE=Blues
TTITLE0=Jack And Jill Blues
TTITLE1=Poor Man's Friend
TTITLE2=Hobo Jungle Blues
TTITLE3=Airplane Blues
TTITLE4=Floating Bridge
TTITLE5=Need More Blues
TTITLE6=Fire Departement Blues
TTITLE7=New Someday Baby
TTITLE8=Liquor Store Blues
TTITLE9=Brownsville Blues
TTITLE10=Everybody Oughta Make A Change
TTITLE11=Easin' Back To Tennessee
TTITLE12=Clean Up At Home
TTITLE13=Special Agent
TTITLE14=Drop Down
TTITLE15=Jailhouse Blues
TTITLE16=Time Is Drawing Near
TTITLE17=Tell Me How About It
TTITLE18=Mailman Blues
TTITLE19=Mary Come On Home
TTITLE20=Working Man Blues
TTITLE21=Don't You Want To Know
TTITLE22=Lawyer Clark Blues
TTITLE23=You Shouldn't Do That
TTITLE24=Little Laura Blues
TTITLE25=When The Saints Go Marching In
EXTD=
EXTT0=
EXTT1=
EXTT2=
EXTT3=
EXTT4=
EXTT5=
EXTT6=
EXTT7=
EXTT8=
EXTT9=
EXTT10=
EXTT11=
EXTT12=
EXTT13=
EXTT14=
EXTT15=
EXTT16=
EXTT17=
EXTT18=
EXTT19=
EXTT20=
EXTT21=
EXTT22=
EXTT23=
EXTT24=
EXTT25=
PLAYORDER=
